<mxfile host="app.diagrams.net" modified="2021-11-02T15:53:37.230Z" agent="5.0 (Windows NT 10.0; Win64; x64) AppleWebKit/537.36 (KHTML, like Gecko) Chrome/94.0.4606.81 Safari/537.36 OPR/80.0.4170.61" etag="77U1hRuXV9RLxBFCg1k2" version="15.6.5" type="github">
  <diagram id="NOR8Umr-2Z6OVdcZxQUU" name="Page-1">
    <mxGraphModel dx="593" dy="589" grid="1" gridSize="10" guides="1" tooltips="1" connect="1" arrows="1" fold="1" page="1" pageScale="1" pageWidth="827" pageHeight="1169" math="0" shadow="0">
      <root>
        <mxCell id="0" />
        <mxCell id="1" parent="0" />
        <mxCell id="MFvRNMCTOnl-ABRSNW0T-30" style="edgeStyle=orthogonalEdgeStyle;rounded=0;orthogonalLoop=1;jettySize=auto;html=1;entryX=0.5;entryY=0;entryDx=0;entryDy=0;labelBackgroundColor=default;fontColor=default;strokeColor=default;" edge="1" parent="1" source="MFvRNMCTOnl-ABRSNW0T-2" target="MFvRNMCTOnl-ABRSNW0T-24">
          <mxGeometry relative="1" as="geometry" />
        </mxCell>
        <mxCell id="MFvRNMCTOnl-ABRSNW0T-2" value="начало" style="ellipse;whiteSpace=wrap;html=1;fontColor=default;strokeColor=default;fillColor=default;labelBackgroundColor=default;" vertex="1" parent="1">
          <mxGeometry x="360" y="20" width="120" height="80" as="geometry" />
        </mxCell>
        <mxCell id="MFvRNMCTOnl-ABRSNW0T-22" value="конец" style="ellipse;whiteSpace=wrap;html=1;labelBackgroundColor=default;fontColor=default;strokeColor=default;fillColor=default;" vertex="1" parent="1">
          <mxGeometry x="510" y="980" width="120" height="80" as="geometry" />
        </mxCell>
        <mxCell id="MFvRNMCTOnl-ABRSNW0T-51" style="edgeStyle=orthogonalEdgeStyle;rounded=0;orthogonalLoop=1;jettySize=auto;html=1;exitX=0.5;exitY=1;exitDx=0;exitDy=0;entryX=0.5;entryY=0;entryDx=0;entryDy=0;labelBackgroundColor=default;fontSize=12;fontColor=default;strokeColor=default;" edge="1" parent="1" source="MFvRNMCTOnl-ABRSNW0T-24" target="MFvRNMCTOnl-ABRSNW0T-50">
          <mxGeometry relative="1" as="geometry" />
        </mxCell>
        <mxCell id="MFvRNMCTOnl-ABRSNW0T-24" value="Ввод: dx" style="shape=parallelogram;perimeter=parallelogramPerimeter;whiteSpace=wrap;html=1;fixedSize=1;labelBackgroundColor=default;fontColor=default;strokeColor=default;fillColor=default;" vertex="1" parent="1">
          <mxGeometry x="360" y="140" width="120" height="60" as="geometry" />
        </mxCell>
        <mxCell id="MFvRNMCTOnl-ABRSNW0T-26" value="&amp;nbsp; dx - шаг" style="strokeWidth=2;html=1;shape=mxgraph.flowchart.annotation_1;align=left;pointerEvents=1;labelBackgroundColor=default;fontColor=default;fillColor=default;strokeColor=default;" vertex="1" parent="1">
          <mxGeometry x="520" y="140" width="10" height="60" as="geometry" />
        </mxCell>
        <mxCell id="MFvRNMCTOnl-ABRSNW0T-27" value="" style="endArrow=none;dashed=1;html=1;dashPattern=1 3;strokeWidth=2;rounded=0;labelBackgroundColor=default;fontColor=default;strokeColor=default;" edge="1" parent="1" source="MFvRNMCTOnl-ABRSNW0T-24">
          <mxGeometry width="50" height="50" relative="1" as="geometry">
            <mxPoint x="474" y="220" as="sourcePoint" />
            <mxPoint x="520" y="170" as="targetPoint" />
          </mxGeometry>
        </mxCell>
        <mxCell id="MFvRNMCTOnl-ABRSNW0T-28" value="y =&amp;nbsp;х&lt;span style=&quot;font-family: &amp;quot;arial&amp;quot; , sans-serif&quot;&gt;&lt;span style=&quot;vertical-align: baseline ; position: relative ; top: -0.4em&quot;&gt;&lt;font style=&quot;font-size: 10px&quot;&gt;2&lt;/font&gt;&lt;/span&gt;&lt;/span&gt;+х+ 17" style="rounded=0;whiteSpace=wrap;html=1;labelBackgroundColor=default;fontColor=default;strokeColor=default;fillColor=default;" vertex="1" parent="1">
          <mxGeometry x="359" y="340" width="122" height="60" as="geometry" />
        </mxCell>
        <mxCell id="MFvRNMCTOnl-ABRSNW0T-42" style="edgeStyle=orthogonalEdgeStyle;rounded=0;orthogonalLoop=1;jettySize=auto;html=1;entryX=0.5;entryY=0;entryDx=0;entryDy=0;labelBackgroundColor=default;fontSize=12;fontColor=default;strokeColor=default;" edge="1" parent="1" target="MFvRNMCTOnl-ABRSNW0T-39">
          <mxGeometry relative="1" as="geometry">
            <mxPoint x="421" y="400" as="sourcePoint" />
          </mxGeometry>
        </mxCell>
        <mxCell id="MFvRNMCTOnl-ABRSNW0T-43" style="edgeStyle=orthogonalEdgeStyle;rounded=0;orthogonalLoop=1;jettySize=auto;html=1;entryX=0.5;entryY=0;entryDx=0;entryDy=0;labelBackgroundColor=default;fontSize=12;fontColor=default;strokeColor=default;" edge="1" parent="1" source="MFvRNMCTOnl-ABRSNW0T-39" target="MFvRNMCTOnl-ABRSNW0T-41">
          <mxGeometry relative="1" as="geometry" />
        </mxCell>
        <mxCell id="MFvRNMCTOnl-ABRSNW0T-39" value="n = n+1" style="rounded=0;whiteSpace=wrap;html=1;labelBackgroundColor=default;fontSize=12;fontColor=default;strokeColor=default;fillColor=default;align=center;" vertex="1" parent="1">
          <mxGeometry x="361" y="440" width="120" height="60" as="geometry" />
        </mxCell>
        <mxCell id="MFvRNMCTOnl-ABRSNW0T-57" style="edgeStyle=orthogonalEdgeStyle;rounded=0;orthogonalLoop=1;jettySize=auto;html=1;entryX=0.5;entryY=0;entryDx=0;entryDy=0;labelBackgroundColor=default;fontSize=12;fontColor=default;strokeColor=default;" edge="1" parent="1" source="MFvRNMCTOnl-ABRSNW0T-40" target="MFvRNMCTOnl-ABRSNW0T-46">
          <mxGeometry relative="1" as="geometry" />
        </mxCell>
        <mxCell id="MFvRNMCTOnl-ABRSNW0T-40" value="m = y/n" style="rounded=0;whiteSpace=wrap;html=1;labelBackgroundColor=default;fontSize=12;fontColor=default;strokeColor=default;fillColor=default;align=center;" vertex="1" parent="1">
          <mxGeometry x="260" y="625" width="120" height="60" as="geometry" />
        </mxCell>
        <mxCell id="MFvRNMCTOnl-ABRSNW0T-45" style="edgeStyle=orthogonalEdgeStyle;rounded=0;orthogonalLoop=1;jettySize=auto;html=1;labelBackgroundColor=default;fontSize=12;fontColor=default;strokeColor=default;entryX=0.5;entryY=0;entryDx=0;entryDy=0;startArrow=none;" edge="1" parent="1" target="MFvRNMCTOnl-ABRSNW0T-40">
          <mxGeometry relative="1" as="geometry">
            <mxPoint x="320" y="620" as="targetPoint" />
            <mxPoint x="360" y="580" as="sourcePoint" />
            <Array as="points">
              <mxPoint x="360" y="585" />
              <mxPoint x="320" y="585" />
            </Array>
          </mxGeometry>
        </mxCell>
        <mxCell id="MFvRNMCTOnl-ABRSNW0T-55" style="edgeStyle=orthogonalEdgeStyle;rounded=0;orthogonalLoop=1;jettySize=auto;html=1;exitX=1;exitY=0.5;exitDx=0;exitDy=0;labelBackgroundColor=default;fontSize=12;fontColor=default;strokeColor=default;" edge="1" parent="1" source="MFvRNMCTOnl-ABRSNW0T-41" target="MFvRNMCTOnl-ABRSNW0T-56">
          <mxGeometry relative="1" as="geometry">
            <mxPoint x="560" y="640" as="targetPoint" />
            <Array as="points">
              <mxPoint x="560" y="585" />
              <mxPoint x="560" y="585" />
            </Array>
          </mxGeometry>
        </mxCell>
        <mxCell id="MFvRNMCTOnl-ABRSNW0T-41" value="n&amp;lt;y" style="rhombus;whiteSpace=wrap;html=1;labelBackgroundColor=default;fontSize=12;fontColor=default;strokeColor=default;fillColor=default;align=center;" vertex="1" parent="1">
          <mxGeometry x="361" y="545" width="120" height="80" as="geometry" />
        </mxCell>
        <mxCell id="MFvRNMCTOnl-ABRSNW0T-47" style="edgeStyle=orthogonalEdgeStyle;rounded=0;orthogonalLoop=1;jettySize=auto;html=1;exitX=0;exitY=0.5;exitDx=0;exitDy=0;labelBackgroundColor=default;fontSize=12;fontColor=default;strokeColor=default;" edge="1" parent="1" source="MFvRNMCTOnl-ABRSNW0T-46" target="MFvRNMCTOnl-ABRSNW0T-58">
          <mxGeometry relative="1" as="geometry">
            <mxPoint x="200" y="800" as="targetPoint" />
            <Array as="points">
              <mxPoint x="440" y="760" />
            </Array>
          </mxGeometry>
        </mxCell>
        <mxCell id="MFvRNMCTOnl-ABRSNW0T-59" style="edgeStyle=orthogonalEdgeStyle;rounded=0;orthogonalLoop=1;jettySize=auto;html=1;labelBackgroundColor=default;fontSize=12;fontColor=default;strokeColor=default;" edge="1" parent="1" source="MFvRNMCTOnl-ABRSNW0T-46">
          <mxGeometry relative="1" as="geometry">
            <mxPoint x="420" y="420" as="targetPoint" />
            <Array as="points">
              <mxPoint x="220" y="760" />
            </Array>
          </mxGeometry>
        </mxCell>
        <mxCell id="MFvRNMCTOnl-ABRSNW0T-46" value="m - целое число" style="rhombus;whiteSpace=wrap;html=1;labelBackgroundColor=default;fontSize=12;fontColor=default;strokeColor=default;fillColor=default;align=center;" vertex="1" parent="1">
          <mxGeometry x="260" y="720" width="120" height="80" as="geometry" />
        </mxCell>
        <mxCell id="MFvRNMCTOnl-ABRSNW0T-52" style="edgeStyle=orthogonalEdgeStyle;rounded=0;orthogonalLoop=1;jettySize=auto;html=1;entryX=0.5;entryY=0;entryDx=0;entryDy=0;labelBackgroundColor=default;fontSize=12;fontColor=default;strokeColor=default;" edge="1" parent="1" source="MFvRNMCTOnl-ABRSNW0T-50" target="MFvRNMCTOnl-ABRSNW0T-28">
          <mxGeometry relative="1" as="geometry" />
        </mxCell>
        <mxCell id="MFvRNMCTOnl-ABRSNW0T-50" value="n = 1&lt;br&gt;x = 0" style="rounded=0;whiteSpace=wrap;html=1;labelBackgroundColor=default;fontSize=12;fontColor=default;strokeColor=default;fillColor=default;align=center;" vertex="1" parent="1">
          <mxGeometry x="360" y="240" width="120" height="60" as="geometry" />
        </mxCell>
        <mxCell id="MFvRNMCTOnl-ABRSNW0T-63" style="edgeStyle=orthogonalEdgeStyle;rounded=0;orthogonalLoop=1;jettySize=auto;html=1;labelBackgroundColor=default;fontSize=12;fontColor=default;strokeColor=default;entryX=0.5;entryY=0;entryDx=0;entryDy=0;" edge="1" parent="1" source="MFvRNMCTOnl-ABRSNW0T-56" target="MFvRNMCTOnl-ABRSNW0T-58">
          <mxGeometry relative="1" as="geometry">
            <mxPoint x="440" y="760" as="targetPoint" />
            <Array as="points">
              <mxPoint x="560" y="760" />
              <mxPoint x="440" y="760" />
            </Array>
          </mxGeometry>
        </mxCell>
        <mxCell id="MFvRNMCTOnl-ABRSNW0T-56" value="Вывод: y" style="shape=parallelogram;perimeter=parallelogramPerimeter;whiteSpace=wrap;html=1;fixedSize=1;labelBackgroundColor=default;fontSize=12;fontColor=default;strokeColor=default;fillColor=default;align=center;" vertex="1" parent="1">
          <mxGeometry x="500" y="625" width="120" height="60" as="geometry" />
        </mxCell>
        <mxCell id="MFvRNMCTOnl-ABRSNW0T-60" style="edgeStyle=orthogonalEdgeStyle;rounded=0;orthogonalLoop=1;jettySize=auto;html=1;labelBackgroundColor=default;fontSize=12;fontColor=default;strokeColor=default;" edge="1" parent="1" source="MFvRNMCTOnl-ABRSNW0T-58" target="MFvRNMCTOnl-ABRSNW0T-61">
          <mxGeometry relative="1" as="geometry">
            <mxPoint x="440" y="890" as="targetPoint" />
          </mxGeometry>
        </mxCell>
        <mxCell id="MFvRNMCTOnl-ABRSNW0T-58" value="x = x + dx" style="rounded=0;whiteSpace=wrap;html=1;labelBackgroundColor=default;fontSize=12;fontColor=default;strokeColor=default;fillColor=default;align=center;" vertex="1" parent="1">
          <mxGeometry x="380" y="800" width="120" height="60" as="geometry" />
        </mxCell>
        <mxCell id="MFvRNMCTOnl-ABRSNW0T-62" style="edgeStyle=orthogonalEdgeStyle;rounded=0;orthogonalLoop=1;jettySize=auto;html=1;labelBackgroundColor=default;fontSize=12;fontColor=default;strokeColor=default;" edge="1" parent="1" source="MFvRNMCTOnl-ABRSNW0T-61">
          <mxGeometry relative="1" as="geometry">
            <mxPoint x="420" y="320" as="targetPoint" />
            <Array as="points">
              <mxPoint x="160" y="940" />
            </Array>
          </mxGeometry>
        </mxCell>
        <mxCell id="MFvRNMCTOnl-ABRSNW0T-64" style="edgeStyle=orthogonalEdgeStyle;rounded=0;orthogonalLoop=1;jettySize=auto;html=1;labelBackgroundColor=default;fontSize=12;fontColor=default;strokeColor=default;startArrow=none;exitX=1;exitY=0.5;exitDx=0;exitDy=0;" edge="1" parent="1" source="MFvRNMCTOnl-ABRSNW0T-61">
          <mxGeometry relative="1" as="geometry">
            <mxPoint x="570" y="980" as="targetPoint" />
            <Array as="points">
              <mxPoint x="570" y="940" />
            </Array>
          </mxGeometry>
        </mxCell>
        <mxCell id="MFvRNMCTOnl-ABRSNW0T-61" value="x &amp;lt;= 15" style="rhombus;whiteSpace=wrap;html=1;labelBackgroundColor=default;fontSize=12;fontColor=default;strokeColor=default;fillColor=default;align=center;" vertex="1" parent="1">
          <mxGeometry x="380" y="900" width="120" height="80" as="geometry" />
        </mxCell>
        <mxCell id="MFvRNMCTOnl-ABRSNW0T-67" value="no" style="text;html=1;resizable=0;autosize=1;align=center;verticalAlign=middle;points=[];fillColor=none;strokeColor=none;rounded=0;labelBackgroundColor=default;fontSize=12;fontColor=default;" vertex="1" parent="1">
          <mxGeometry x="480" y="565" width="30" height="20" as="geometry" />
        </mxCell>
        <mxCell id="MFvRNMCTOnl-ABRSNW0T-66" value="yes" style="text;html=1;resizable=0;autosize=1;align=center;verticalAlign=middle;points=[];fillColor=none;strokeColor=none;rounded=0;labelBackgroundColor=default;fontSize=12;fontColor=default;" vertex="1" parent="1">
          <mxGeometry x="331" y="565" width="30" height="20" as="geometry" />
        </mxCell>
        <mxCell id="MFvRNMCTOnl-ABRSNW0T-70" value="yes" style="text;html=1;resizable=0;autosize=1;align=center;verticalAlign=middle;points=[];fillColor=none;strokeColor=none;rounded=0;labelBackgroundColor=default;fontSize=12;fontColor=default;" vertex="1" parent="1">
          <mxGeometry x="380" y="740" width="30" height="20" as="geometry" />
        </mxCell>
        <mxCell id="MFvRNMCTOnl-ABRSNW0T-71" value="no" style="text;html=1;resizable=0;autosize=1;align=center;verticalAlign=middle;points=[];fillColor=none;strokeColor=none;rounded=0;labelBackgroundColor=default;fontSize=12;fontColor=default;" vertex="1" parent="1">
          <mxGeometry x="230" y="740" width="30" height="20" as="geometry" />
        </mxCell>
        <mxCell id="MFvRNMCTOnl-ABRSNW0T-72" value="no" style="text;html=1;resizable=0;autosize=1;align=center;verticalAlign=middle;points=[];fillColor=none;strokeColor=none;rounded=0;labelBackgroundColor=default;fontSize=12;fontColor=default;" vertex="1" parent="1">
          <mxGeometry x="500" y="920" width="30" height="20" as="geometry" />
        </mxCell>
        <mxCell id="MFvRNMCTOnl-ABRSNW0T-74" value="yes" style="text;html=1;resizable=0;autosize=1;align=center;verticalAlign=middle;points=[];fillColor=none;strokeColor=none;rounded=0;labelBackgroundColor=default;fontSize=12;fontColor=default;" vertex="1" parent="1">
          <mxGeometry x="350" y="920" width="30" height="20" as="geometry" />
        </mxCell>
      </root>
    </mxGraphModel>
  </diagram>
</mxfile>
